<?xml version="1.0" encoding="utf-8"?>
<!-- Generator: Adobe Illustrator 16.0.0, SVG Export Plug-In . SVG Version: 6.00 Build 0)  -->
<!DOCTYPE svg PUBLIC "-//W3C//DTD SVG 1.1//EN" "http://www.w3.org/Graphics/SVG/1.1/DTD/svg11.dtd">
<svg version="1.1" id="Layer_1" xmlns="http://www.w3.org/2000/svg" xmlns:xlink="http://www.w3.org/1999/xlink" x="0px" y="0px"
	 width="512px" height="512px" viewBox="0 0 512 512" enable-background="new 0 0 512 512" xml:space="preserve">
<g>
	<g>
		<rect x="98.937" y="47.825" fill-rule="evenodd" clip-rule="evenodd" fill="#D4D8DD" width="292.88" height="393.692"/>
	</g>
	<g>
		<path fill="#395A7C" d="M387.917,51.761H102.835v385.821h285.082V51.761z M98.937,43.889h0.212h292.668
			c2.201,0,3.975,1.773,3.975,3.936v0.213v393.479c0,2.163-1.773,3.937-3.975,3.937h-0.206H98.937c-2.133,0-3.899-1.774-3.899-3.937
			v-0.213V47.825C95.037,45.662,96.804,43.889,98.937,43.889z"/>
	</g>
	<g>
		<rect x="76.456" y="65.2" fill-rule="evenodd" clip-rule="evenodd" fill="#E4EFF8" width="292.88" height="393.728"/>
	</g>
	<g>
		<path fill="#395A7C" d="M365.438,69.135H80.355v385.856h285.082V69.135z M76.456,61.299h0.213h292.667
			c2.2,0,3.975,1.773,3.975,3.901v0.212v393.516c0,2.163-1.774,3.899-3.975,3.899h-0.213H76.456c-2.132,0-3.899-1.737-3.899-3.899
			v-0.213V65.2C72.557,63.072,74.324,61.299,76.456,61.299z"/>
	</g>
	<g>
		<path fill-rule="evenodd" clip-rule="evenodd" fill="#395A7C" d="M104.038,127.215h239.628v10.142H104.038V127.215z
			 M104.038,103.246h174.738v10.177H104.038V103.246z M104.038,150.406h239.628v10.141H104.038V150.406z"/>
	</g>
	<g>
		<path fill-rule="evenodd" clip-rule="evenodd" fill="#395A7C" d="M104.038,224.371h239.628v10.141H104.038V224.371z
			 M104.038,200.437h174.738v10.141H104.038V200.437z M104.038,247.597h239.628v10.14H104.038V247.597z"/>
	</g>
	<g>
		<path fill-rule="evenodd" clip-rule="evenodd" fill="#395A7C" d="M104.038,315.711h239.628v10.141H104.038V315.711z
			 M104.038,291.777h174.738v10.141H104.038V291.777z M104.038,338.937h239.628v10.14H104.038V338.937z"/>
	</g>
	<g>
		<path fill-rule="evenodd" clip-rule="evenodd" fill="#D1C476" d="M328.564,17.756c48.858-17.835,102.896,7.27,120.77,56.096
			c17.873,48.825-7.304,102.899-56.094,120.735c-48.866,17.871-102.904-7.269-120.777-56.094
			C254.598,89.665,279.773,35.592,328.564,17.756z"/>
	</g>
	<g>
		<path fill="#395A7C" d="M360.898,204.266c-40.984,0-78.011-25.884-92.121-64.427c-9.001-24.607-7.866-51.237,3.19-74.994
			c11.065-23.757,30.636-41.77,55.249-50.776c10.92-3.971,22.198-5.992,33.682-5.992c40.992,0,78.01,25.884,92.121,64.428
			c9.009,24.608,7.874,51.238-3.191,74.994c-11.064,23.757-30.635,41.771-55.24,50.777
			C383.736,202.246,372.39,204.266,360.898,204.266z M360.898,15.912c-10.563,0-20.987,1.879-30.986,5.532
			c-22.625,8.261-40.711,24.856-50.847,46.699c-10.143,21.877-11.21,46.378-2.908,69.001c12.976,35.458,47.016,59.286,84.741,59.286
			c10.57,0,20.995-1.879,30.994-5.532c22.616-8.261,40.703-24.856,50.847-46.698c10.143-21.877,11.201-46.379,2.908-69.002
			C432.664,39.74,398.624,15.912,360.898,15.912z"/>
	</g>
	<g>
		<path fill-rule="evenodd" clip-rule="evenodd" fill="#F4E597" d="M330.545,23.04c45.889-16.772,96.658,6.843,113.465,52.762
			c16.808,45.917-6.808,96.729-52.758,113.501c-45.881,16.771-96.659-6.843-113.465-52.762
			C260.98,90.623,284.595,39.812,330.545,23.04"/>
	</g>
	<g>
		<path fill-rule="evenodd" clip-rule="evenodd" fill="#D1C476" d="M335.936,37.826c37.727-13.794,79.495,5.638,93.324,43.365
			c13.761,37.763-5.674,79.532-43.398,93.326c-37.727,13.793-79.495-5.638-93.324-43.366
			C278.776,93.389,298.211,51.619,335.936,37.826"/>
	</g>
	<g>
		<path fill="#395A7C" d="M378.703,138.739c3.259-2.056,5.597-4.786,6.876-8.226c1.279-3.404,1.279-6.878-0.068-10.459
			c-1.135-3.12-3.054-5.533-5.749-7.091c-2.765-1.632-6.451-2.27-11.203-1.951L378.703,138.739z M340.832,67.008
			c-2.414,1.986-3.975,4.432-4.752,7.269c-0.783,2.872-0.707,5.637,0.282,8.368c0.921,2.481,2.482,4.574,4.752,6.169
			c2.269,1.595,5.179,2.518,8.72,2.73L340.832,67.008z M367.988,141.329l-10.844-29.644c-10.145,0.71-18.368-0.851-24.613-4.645
			c-6.236-3.794-10.774-9.503-13.539-17.162c-2.841-7.73-2.772-15.105,0.137-22.125c2.978-7.057,8.301-12.411,16.099-16.134
			l-2.482-6.95l10.28-3.723l2.559,6.95c7.867-1.844,14.819-1.454,20.851,1.17c5.955,2.625,10.92,7.233,14.751,13.899l-17.233,8.829
			c-3.122-5.176-7.311-7.906-12.694-8.226l10.136,27.657c12.481-1.1,21.702,0.106,27.589,3.476
			c5.956,3.367,10.281,8.9,13.045,16.559c3.123,8.51,3.199,16.665,0.076,24.395c-3.053,7.729-8.939,13.97-17.659,18.757
			l4.821,13.226l-10.35,3.723l-4.752-13.083c-8.514,1.985-16.174,1.347-23.195-1.844c-6.877-3.227-12.764-9.184-17.584-17.906
			l17.66-8.829c2.123,3.475,4.752,6.205,7.797,8.19C361.965,139.874,365.011,141.009,367.988,141.329z"/>
	</g>
	<g opacity="0.2">
		<g>
			<defs>
				<rect id="SVGID_11_" x="245.733" y="258.802" width="146.083" height="200.126"/>
			</defs>
			<clipPath id="SVGID_2_">
				<use xlink:href="#SVGID_11_"  overflow="visible"/>
			</clipPath>
			<g clip-path="url(#SVGID_2_)">
				<polygon fill-rule="evenodd" clip-rule="evenodd" fill="#272323" points="369.336,396.131 369.336,396.912 316.433,458.928 
					245.733,458.928 256.015,432.972 270.766,401.485 283.811,386.132 286.795,382.728 287.358,381.203 308.422,356.524 
					321.543,341.17 391.816,258.802 391.816,369.785 				"/>
			</g>
			<g clip-path="url(#SVGID_2_)">
				<path d="M316.433,462.827h-70.699c-1.278,0-2.482-0.637-3.19-1.702c-0.784-1.063-0.921-2.446-0.427-3.652l10.281-25.955
					l14.818-31.7c0.146-0.319,0.29-0.603,0.572-0.886l15.953-19.184c0.146-0.389,0.358-0.78,0.64-1.099l104.458-122.401
					c1.066-1.276,2.84-1.737,4.325-1.135c1.562,0.603,2.627,2.056,2.627,3.688v110.983c0,0.958-0.357,1.844-0.99,2.553
					l-21.771,25.495c-0.145,0.637-0.357,1.276-0.716,1.631l-52.902,62.016C318.702,462.332,317.567,462.827,316.433,462.827z
					 M251.544,454.991h63.115l50.991-59.782c0.145-0.638,0.426-1.277,0.709-1.631l21.558-25.246v-98.893l-97.505,114.708
					c-0.145,0.425-0.357,0.815-0.639,1.135L274.1,403.613l-14.537,31.026L251.544,454.991z"/>
			</g>
		</g>
	</g>
	<g>
		<path fill-rule="evenodd" clip-rule="evenodd" fill="#688794" d="M278.145,407.478c0,0,28.861-0.426,41.13,35.139l130.622-153.002
			l24.682-28.935c13.615-15.92,4.82-23.438,4.82-23.438l-11.772-10.035l-11.767-10.07c0,0-8.795-7.517-22.41,8.44l-4.045,4.75
			L303.815,377.444l-9.862,11.525L278.145,407.478z"/>
	</g>
	<g>
		<path fill-rule="evenodd" clip-rule="evenodd" fill="#E9E9EB" d="M319.274,442.617c-12.269-35.565-41.13-35.139-41.13-35.139
			l-32.555,79.78l54.037-32.727l15.885-9.645L319.274,442.617z"/>
	</g>
	<g>
		<path fill-rule="evenodd" clip-rule="evenodd" fill="#E4B14B" d="M363.236,307.841c16.883,8.048,30.498,19.856,40.711,35.563
			l11.415-13.368c-10.136-15.85-23.614-27.764-40.421-35.919L363.236,307.841z M370.044,383.189
			c-10.136-16.275-23.401-28.508-39.782-36.77l-11.772,13.863c16.524,8.014,30.005,19.963,40.353,35.99L370.044,383.189z"/>
	</g>
	<g>
		<path fill="#395A7C" d="M383.523,325.711L383.523,325.711c-6.526-5.673-13.898-10.46-21.985-14.326l-4.607-2.198l3.328-3.865
			l11.704-13.722l1.988-2.305l2.695,1.312c8.719,4.22,16.594,9.468,23.615,15.672c7.021,6.206,13.188,13.438,18.437,21.665
			l1.484,2.446l-1.843,2.199l-11.415,13.367l-3.403,3.972l-2.834-4.361C395.791,338.015,390.049,331.385,383.523,325.711
			 M369.412,306.599c7.021,3.723,13.402,8.12,19.213,13.19v0.035c5.818,5.036,11.065,10.744,15.672,17.162l6.176-7.269
			c-4.469-6.596-9.647-12.482-15.39-17.588c-5.741-5.106-12.131-9.467-19.152-13.12L369.412,306.599z M355.156,358.935
			c6.877,6.383,12.977,13.793,18.154,22.162l1.562,2.446l-1.919,2.163l-11.133,13.119l-3.404,3.972l-2.909-4.397
			c-4.889-7.694-10.63-14.432-17.089-20.211c-6.449-5.745-13.684-10.567-21.627-14.396l-4.607-2.199l3.328-3.829l11.773-13.9
			l1.987-2.305l2.765,1.383c8.506,4.29,16.243,9.645,23.119,15.957V358.935z M365.155,382.833
			c-4.539-6.878-9.648-12.942-15.321-18.154l0,0c-5.598-5.177-11.842-9.645-18.573-13.333l-6.603,7.731
			c6.884,3.722,13.197,8.155,18.938,13.261c5.742,5.106,10.92,10.957,15.604,17.481L365.155,382.833z"/>
	</g>
	<g opacity="0.25">
		<path fill-rule="evenodd" clip-rule="evenodd" fill="#272323" d="M245.59,487.258l59.146-68.15l0.922,0.851l0.137,0.106
			c2.771,2.163,11.064,6.134,25.039-8.156c17.515-17.835,140.834-162.292,140.834-162.292s6.177-12.659-8.291-26.062l4.249,3.652
			l11.772,10.035c0,0,8.795,7.518-4.82,23.438l-24.682,28.935L319.274,442.617c-5.392,6.312-9.931,8.51-13.335,8.084l-6.313,3.83
			L245.59,487.258z"/>
	</g>
	<g>
		<path fill-rule="evenodd" clip-rule="evenodd" fill="#383E4F" d="M44.045,272.204h167.359c7.875,0,14.256,6.419,14.256,14.218
			v199.312c0,7.836-6.381,14.254-14.256,14.254H44.045c-7.797,0-14.187-6.417-14.187-14.254V286.422
			C29.858,278.623,36.248,272.204,44.045,272.204"/>
	</g>
	<g opacity="0.19">
		<path fill-rule="evenodd" clip-rule="evenodd" fill="#272323" d="M225.66,286.459v199.275c0,7.872-6.381,14.254-14.256,14.254
			H44.114c-3.687,0-7.09-1.418-9.573-3.723C185.308,470.912,225.66,286.459,225.66,286.459"/>
	</g>
	<g>
		<rect x="45.394" y="291.104" fill-rule="evenodd" clip-rule="evenodd" fill="#8BC15C" width="165.233" height="73.434"/>
	</g>
	<g>
		<rect x="45.394" y="291.104" fill-rule="evenodd" clip-rule="evenodd" fill="#499B5A" width="165.233" height="10.814"/>
	</g>
	<g opacity="0.15">
		<path fill-rule="evenodd" clip-rule="evenodd" fill="#272323" d="M210.627,291.104v73.434H65.246
			C172.544,360.566,210.627,291.104,210.627,291.104"/>
	</g>
	<g>
		<rect x="131.483" y="371.098" fill-rule="evenodd" clip-rule="evenodd" fill="#628892" width="76.807" height="55.066"/>
	</g>
	<g>
		<rect x="47.168" y="433.646" fill-rule="evenodd" clip-rule="evenodd" fill="#628892" width="76.799" height="55.067"/>
	</g>
	<g>
		<rect x="47.168" y="371.098" fill-rule="evenodd" clip-rule="evenodd" fill="#628892" width="76.799" height="55.066"/>
	</g>
	<g>
		<rect x="131.483" y="433.646" fill-rule="evenodd" clip-rule="evenodd" fill="#EB7113" width="76.807" height="55.067"/>
	</g>
	<g>
		<path fill="#E9E9EB" d="M101.061,410.349c1.066,1.029,1.066,2.767,0,3.794c-1.066,1.028-2.764,1.028-3.83,0l-11.697-11.702
			l-11.704,11.702c-0.991,1.028-2.696,1.028-3.755,0c-1.065-1.028-1.065-2.765,0-3.794l11.697-11.701l-11.697-11.737
			c-1.065-1.028-1.065-2.73,0-3.759c1.059-1.028,2.764-1.028,3.755,0l11.704,11.702l11.697-11.702c1.066-1.028,2.764-1.028,3.83,0
			c1.066,1.029,1.066,2.731,0,3.759l-11.697,11.737L101.061,410.349z"/>
	</g>
	<g>
		<path fill="#E9E9EB" d="M176.375,412.229c0,1.489-1.203,2.694-2.696,2.694c-1.484,0-2.695-1.205-2.695-2.694v-10.922h-11.56
			c-1.417,0-2.62-1.205-2.62-2.659c0-1.489,1.203-2.695,2.62-2.695h11.56v-10.921c0-1.454,1.211-2.66,2.695-2.66
			c1.493,0,2.696,1.206,2.696,2.66v10.921h11.133c1.493,0,2.628,1.206,2.628,2.695c0,1.454-1.135,2.659-2.628,2.659h-11.133V412.229
			z"/>
	</g>
	<g>
		<path fill="#E9E9EB" d="M70.569,464.388c-1.279,0-2.346-1.454-2.346-3.227c0-1.738,1.066-3.191,2.346-3.191h29.928
			c1.348,0,2.406,1.454,2.406,3.191c0,1.773-1.059,3.227-2.406,3.227H70.569z"/>
	</g>
	<g>
		<path fill="#E9E9EB" d="M154.961,470.7c-1.348,0-2.414-1.418-2.414-3.191s1.066-3.228,2.414-3.228h29.928
			c1.272,0,2.338,1.455,2.338,3.228s-1.065,3.191-2.338,3.191H154.961z M154.961,458.041c-1.348,0-2.414-1.418-2.414-3.191
			s1.066-3.19,2.414-3.19h29.928c1.272,0,2.338,1.418,2.338,3.19s-1.065,3.191-2.338,3.191H154.961z"/>
	</g>
	<g>
		<path fill="#395A7C" d="M458.342,214.194l0.283,0.177l-2.766,2.766l-2.771,2.802 M436.426,228.13L436.426,228.13l-2.977-2.553
			l-2.979-2.518 M315.581,443.857c-11.347-32.834-37.368-32.444-37.437-32.444l-3.48-2.908l0.494-3.581l15.817-18.508l9.861-11.525
			l125.591-147.081l4.043-4.751l0,0c14.888-17.481,26.166-10.212,27.871-8.865h0.069l11.773,10.035l11.772,10.035l0.214,0.212
			c0,0.035,11.415,9.929-4.616,28.757l-24.673,28.934l-130.63,152.967l-5.529,1.949L315.581,443.857z M285.797,404.605
			c9.36,2.163,25.176,9.042,34.749,30.495L446.92,287.097l24.681-28.934c10.067-11.807,6.03-17.126,5.179-18.013l-11.705-9.963
			l-11.773-10.07l-0.213-0.177c0,0-5.674-4.681-16.662,8.191l-4.044,4.716v0.035L306.793,379.997l-9.862,11.525L285.797,404.605z"/>
	</g>
	<g>
		<path fill="#395A7C" d="M278.145,403.576c0.137,0,31.626-0.46,44.814,37.728l0.777,2.129l-2.406,2.517l-3.83,2.27l-15.886,9.645
			l-53.969,32.728l-10.144,6.134l4.471-10.956l32.555-79.746l1.842-2.448H278.145z M314.522,440.95
			c-9.504-24.076-27.232-28.508-33.827-29.359l-27.02,66.2l43.895-26.594l15.885-9.645L314.522,440.95z"/>
	</g>
	<g>
		<path fill="#395A7C" d="M211.404,276.105H44.045c-2.84,0-5.391,1.17-7.234,3.049c-1.842,1.844-3.045,4.433-3.045,7.269v199.312
			c0,2.837,1.203,5.46,3.045,7.304c1.844,1.844,4.395,3.013,7.234,3.013h167.359c2.841,0,5.469-1.169,7.311-3.013
			c1.844-1.844,3.047-4.467,3.047-7.304V286.422c0-2.836-1.203-5.424-3.047-7.269C216.873,277.275,214.245,276.105,211.404,276.105
			 M44.045,268.268h167.359c5.042,0,9.58,2.057,12.84,5.354l0,0l0.068,0.071c3.267,3.262,5.247,7.801,5.247,12.729v199.312
			c0,5-2.057,9.538-5.315,12.835l0,0l-0.068,0.071c-3.268,3.227-7.806,5.283-12.771,5.283H44.045c-4.965,0-9.504-2.056-12.762-5.354
			l0,0l-0.076-0.07c-3.26-3.298-5.316-7.801-5.316-12.765V286.422c0-4.963,2.057-9.501,5.393-12.8l0,0l0.067-0.07
			C34.61,270.325,39.149,268.268,44.045,268.268z"/>
	</g>
	<g>
		<path fill="#395A7C" d="M416.429,312.485c-0.922,0-1.844-0.319-2.552-0.922c-1.637-1.418-1.843-3.9-0.427-5.531l8.156-9.751
			c1.417-1.667,3.831-1.879,5.529-0.497c1.705,1.383,1.911,3.866,0.495,5.532l-8.225,9.786
			C418.629,312.024,417.494,312.485,416.429,312.485z M435.648,289.543c-0.921,0-1.774-0.283-2.559-0.886
			c-1.629-1.383-1.842-3.865-0.494-5.532c9.223-11.063,18.223-21.913,21.559-26.31c5.322-6.985,2.695-11.701,2.337-12.197
			c-1.058-1.809-0.563-4.255,1.212-5.39c1.773-1.17,4.112-0.746,5.314,1.028c0.283,0.391,6.313,9.574-2.619,21.31
			c-3.48,4.504-12.481,15.425-21.772,26.559C437.842,289.082,436.783,289.543,435.648,289.543z"/>
	</g>
	<g>
		<path fill="#395A7C" d="M420.472,151.895c-0.784,0-1.492-0.213-2.2-0.637c-1.774-1.207-2.27-3.618-1.066-5.426
			c1.988-3.014,3.693-6.027,5.109-8.97c0.922-1.951,3.191-2.767,5.248-1.809c1.91,0.922,2.764,3.262,1.842,5.213
			c-1.561,3.262-3.473,6.595-5.673,9.893C422.954,151.292,421.744,151.895,420.472,151.895z M431.315,127.215
			c-0.281,0-0.563-0.035-0.921-0.106c-2.057-0.531-3.404-2.624-2.901-4.751c6.092-25.034-3.975-44.749-4.044-44.961
			c-0.998-1.916-0.281-4.292,1.631-5.283c1.91-0.994,4.324-0.249,5.314,1.666c0.426,0.922,11.491,22.551,4.752,50.422
			C434.728,126.011,433.09,127.215,431.315,127.215z"/>
	</g>
</g>
</svg>
